# xmcd CD database file
# Copyright (C) 1996 Ti Kan
#
# Track frame offsets:
# 	150
# 	11250
# 	27197
# 	46812
# 	58217
# 	67437
# 	79950
# 	94320
# 	105735
# 	118777
# 	137052
# 	146152
# 	161110
# 	171422
#
# Disc length: 2448 seconds
#
# Revision: 1
# Processed by: cddbd v1.4b41PL1 Copyright (c) Steve Scherf et al.
# Submitted via: DiscPlay 3.4.1
#
DISCID=d0098e0e
DTITLE=Marty Robbins - Best Hits
DYEAR=1900
DGENRE=
TTITLE0=Singing The Blues
TTITLE1=My Woman, My Woman, My Wife
TTITLE2=El Paso
TTITLE3=Ribbon Of Darkness
TTITLE4=The Shoe Goes On The Other Foot Tonight
TTITLE5=Tonight Carmen
TTITLE6=Have I Told You Lately That I love You
TTITLE7=A White Sport Coat
TTITLE8=Devil Woman
TTITLE9=You Gave Me A Mountain
TTITLE10=Ruby Ann
TTITLE11=I Walk Alone
TTITLE12=The Hawaiian Wedding Song
TTITLE13=Am I That Easy To Forget
EXTD=
EXTT0=
EXTT1=
EXTT2=
EXTT3=
EXTT4=
EXTT5=
EXTT6=
EXTT7=
EXTT8=
EXTT9=
EXTT10=
EXTT11=
EXTT12=
EXTT13=
PLAYORDER=
